<svg version="1.2" xmlns="http://www.w3.org/2000/svg" viewBox="0 0 1500 1500" width="1500" height="1500"><style>.a{fill:#348888}.b{fill:#ea7606}</style><path fill-rule="evenodd" class="a" d="m651.9 1240.6c-106 0-208.9-43.7-290.5-123.7-107.2-104.9-168.7-259.6-168.7-424.6 0-300.1 267-553.7 583-553.7 307.2 0 557.1 250 557.1 557.2 0 205.1-112.2 393-292.8 490.6l-12.7-23.7c171.9-92.8 278.7-271.7 278.7-466.9 0-292.4-237.9-530.3-530.3-530.3-301.5 0-556.1 241.2-556.1 526.8 0 157.8 58.5 305.6 160.5 405.4 78.6 77 176.8 118.4 279.4 116 176.6-3.7 204-121.9 205.1-126.9l26.3 5.5c-0.3 1.4-32.1 144-230.8 148.3q-4.1 0-8.2 0z"/><path fill-rule="evenodd" class="b" d="m379.3 1326.2h-75l-7.2 32.3h58.9l-6.7 29.6h-58.9l-7.7 34.3h75l-7 31.2h-112.4l35.3-157.4h112.4z"/><path fill-rule="evenodd" class="b" d="m417.2 1422.4h62.6l-7 31.2h-99.9l35.2-157.4h37.4z"/><path fill-rule="evenodd" class="b" d="m632.6 1326.2h-74.9l-7.2 32.3h58.8l-6.6 29.6h-58.9l-7.7 34.3h74.9l-6.9 31.2h-112.4l35.2-157.4h112.4z"/><path fill-rule="evenodd" class="b" d="m775.3 1354.8l-39.2 2.4q6.6-33.3-18.5-33.3-28.9 0-40.4 51.3c-4.4 19.7-4.8 33.1-1.2 40.1 3.7 7.1 10.2 10.6 19.6 10.6q22.9 0 34.6-29.8l35.3 2.2c-6.5 18.9-16.8 33.2-30.7 43-13.9 9.8-29.3 14.7-46.3 14.7q-31.3 0-46-21.6c-9.8-14.3-11.8-34.2-6.1-59.6q7.9-35.6 31.9-58.3 24-22.7 56.8-22.7 56.7 0 50.2 61z"/><path fill-rule="evenodd" class="b" d="m909.3 1296.2l-7 31.1h-39l-28.2 126.3h-37.4l28.3-126.3h-39.2l7-31.1z"/><path fill-rule="evenodd" class="b" d="m940.9 1391.2l-13.9 62.4h-37.2l35.3-157.4h69.1c12.8 0 22.7 1.5 29.8 4.5q10.5 4.4 15.5 16.2c3.3 8 3.9 16.8 1.7 26.4q-6.3 28.4-36.4 40.7l13.4 69.6h-40.7l-10.2-62.4zm15-67l-9 40.1h22.6q11.1 0 16.4-1.5c3.6-1 7.1-3.4 10.5-6.9q5.2-5.4 6.7-12.3c1-4.4 0.6-8.3-1.3-11.8q-2.8-5.2-7.1-6.4-4.3-1.2-17-1.2z"/><path fill-rule="evenodd" class="b" d="m1117 1296.2l-35.2 157.4h-36.8l35.3-157.4z"/><path fill-rule="evenodd" class="b" d="m1262.4 1354.8l-39.2 2.4q6.7-33.3-18.5-33.3-28.9 0-40.4 51.3c-4.4 19.7-4.8 33.1-1.1 40.1 3.6 7.1 10.2 10.6 19.6 10.6q22.8 0 34.6-29.8l35.2 2.2c-6.5 18.9-16.7 33.2-30.6 43-14 9.8-29.4 14.7-46.4 14.7q-31.2 0-45.9-21.6c-9.8-14.3-11.9-34.2-6.2-59.6q8-35.6 31.9-58.3 24.1-22.7 56.8-22.7 56.7 0 50.2 61z"/><path class="b" d="m617.4 666.5h42.1l-26.9 77.2h-41.3l-34.3 101.2h-82.6l35.9-101.2h-230.6l32.6-95.1 301.7-264.1h99zm-209.6 0h128.5l53.9-160.4z"/><path class="a" d="m716.6 803.8h-102.8l15.7-46.3h103.2z"/><path class="b" d="m1180.5 681l-63.4 279.9c-17.6 77-91.9 137.2-169.1 137.2h-111.8c-39.8 0-74.3-15.8-97.4-44.7-23.1-29-31.3-68.8-22.2-108.9l59.7-263.5h75.1l-63.4 279.9c-4.1 18.5-1.5 35.1 8.1 46.8 8.8 11.1 23.2 17.3 40.1 17.3h111.8c43 0 87.7-36.9 97.7-80.5l59.7-263.5z"/><path fill-rule="evenodd" class="a" d="m1259.9 642.1h-543.1l32.7-49.4h528.2z"/><path fill-rule="evenodd" class="a" d="m909.1 581.6h-45.8l43-156h45.8z"/><path class="a" d="m1122.8 581.6h-45.8l43-156h45.8z"/><path fill-rule="evenodd" class="a" d="m1003 1247.1c-32.7 0-59.2-26.5-59.2-59.3 0-32.7 26.5-59.2 59.2-59.2 32.8 0 59.2 26.5 59.2 59.2 0 32.8-26.4 59.3-59.2 59.3zm0-26.9c-17.9 0-32.3-14.5-32.3-32.4 0-17.9 14.4-32.3 32.3-32.3 17.9 0 32.4 14.4 32.4 32.3 0 17.9-14.5 32.4-32.4 32.4z"/></svg>